PathFileType	4	(X/Y/Z)	c:/Users/goper/Files/vsCode/490R/osim_files/C12/C12_Fast_06.trc
DataRate	CameraRate	NumFrames	NumMarkers	Units                	OrigDataRate	OrigDataStartFrame	OrigNumFrames
120.00	120.00	9	36	mm	120.0	476	951
                Frame#	Time	LPSIS			LASIS			LTH1			LTH2			LTH3			LTH4			LLFE			LMFE			LSH1			LSH2			LSH3			LSH4			LLMAL			LMMAL			LCAL			LMTP5			LTOE			LMTP1			RPSIS			RASIS			RTH1			RTH2			RTH3			RTH4			RLFE			RMFE			RSH1			RSH2			RSH3			RSH4			RLMAL			RMMAL			RCAL			RMTP1			RTOE			RMTP5		
		X1	Y1	Z1	X2	Y2	Z2	X3	Y3	Z3	X4	Y4	Z4	X5	Y5	Z5	X6	Y6	Z6	X7	Y7	Z7	X8	Y8	Z8	X9	Y9	Z9	X10	Y10	Z10	X11	Y11	Z11	X12	Y12	Z12	X13	Y13	Z13	X14	Y14	Z14	X15	Y15	Z15	X16	Y16	Z16	X17	Y17	Z17	X18	Y18	Z18	X19	Y19	Z19	X20	Y20	Z20	X21	Y21	Z21	X22	Y22	Z22	X23	Y23	Z23	X24	Y24	Z24	X25	Y25	Z25	X26	Y26	Z26	X27	Y27	Z27	X28	Y28	Z28	X29	Y29	Z29	X30	Y30	Z30	X31	Y31	Z31	X32	Y32	Z32	X33	Y33	Z33	X34	Y34	Z34	X35	Y35	Z35	X36	Y36	Z36

476	3.95833	567.13776	1050.48328	347.39493	389.79959	1012.52423	392.19864	392.01086	732.47583	446.91699	371.68433	694.01733	442.39084	336.34930	758.72711	451.32626	322.24396	717.10803	446.00629	277.68524	543.64136	406.23929	273.37564	538.13013	279.72961	307.40060	438.13846	422.74551	292.91028	393.13675	430.93411	248.59865	451.79865	420.27875	242.97697	404.93860	426.72635	190.83885	110.96952	395.15826	176.38393	120.83334	316.10721	240.99089	67.18479	351.52664	46.90244	95.10860	424.23996	8.46319	145.71428	359.49030	22.41474	105.46397	318.71738	579.31934	1055.34412	235.94609	406.23865	1018.34381	139.61142	566.00940	746.94904	100.49899	571.52673	702.69714	111.41898	504.97116	732.06970	104.15023	520.27057	687.35413	112.81748	613.69330	529.21588	158.28899	612.84644	535.42560	291.33960	694.78424	445.55359	140.44527	701.58990	402.97928	136.46992	634.57977	427.20129	149.10785	650.71075	388.39557	144.77008	745.78796	118.46151	194.73206	731.45905	126.40325	278.45209	824.43359	94.16985	235.00023	618.34644	41.22958	267.62140	572.50104	58.18068	234.10550	613.68060	37.15586	160.48318
477	3.96667	554.21332	1046.89026	347.98685	376.40332	1009.15161	392.26178	382.66901	727.48438	446.78726	362.93137	688.69006	442.16193	326.19473	752.59113	450.43604	313.13843	710.98816	445.37357	265.39249	539.56317	404.90698	263.45834	532.93250	277.97922	289.09158	433.94421	421.97632	272.70316	390.16684	430.48303	231.12793	450.66196	417.89883	223.42606	404.12817	425.24319	157.13144	113.06168	395.20959	144.12932	123.12431	315.52194	206.68823	66.55339	352.86096	11.77156	105.05702	421.29947	-22.32541	157.71765	355.53180	-9.85865	116.41261	315.27002	566.66510	1052.03845	236.68005	393.88361	1015.38690	139.35336	557.39423	746.19177	100.74267	563.63666	702.13483	111.60874	496.70554	730.51202	103.68750	511.75357	685.67181	113.08187	607.61609	529.15930	158.16664	605.35199	534.84845	291.04141	689.95667	446.31250	140.87906	697.13416	403.68665	136.93663	630.06946	427.35138	149.02220	646.81293	388.55972	144.58569	744.92426	119.64439	195.10336	730.46014	127.31530	278.55615	823.62842	95.96500	235.42345	618.19104	41.20004	267.58685	572.29541	58.09690	234.01085	613.49194	37.41502	160.24631
478	3.97500	541.12219	1043.31641	348.44955	363.39639	1005.55109	392.51666	373.38623	722.14575	447.41364	354.09061	683.02155	442.75012	316.77524	746.75586	450.29544	304.17407	704.70392	445.03000	252.76711	535.50836	404.21552	253.64343	527.64386	276.49155	271.60965	431.04675	421.46988	252.89859	387.74561	430.06732	214.23097	449.90097	416.34860	204.27066	403.57648	424.09006	124.67827	115.46992	394.06451	114.73008	125.87949	314.89029	172.75790	66.36346	353.90143	-21.21951	115.23190	417.97681	-51.04797	169.33090	351.31659	-40.03740	127.03645	311.54111	553.87439	1048.94543	237.20999	381.31104	1012.41156	139.07477	548.65710	745.54730	100.95574	555.22009	701.48541	111.86028	487.98715	728.90137	103.42826	504.48654	684.73871	112.17889	600.88855	528.98529	158.03987	597.18604	534.28223	290.97665	684.53052	447.07230	141.23219	692.34424	404.52322	137.27521	624.92200	427.44901	149.04042	642.23798	388.71829	144.53087	744.01794	121.04527	195.42122	728.91345	128.48958	278.99808	822.76263	97.97073	235.77402	618.00446	41.13816	267.60855	572.05548	57.99906	233.91850	613.40247	37.40820	160.24315
479	3.98333	527.91272	1039.69641	348.96274	349.45676	1001.95691	392.39099	363.77722	716.65894	448.42758	345.31747	677.33362	444.00931	307.09464	740.65607	450.58731	294.83279	698.46497	445.29999	239.33229	532.25946	403.85355	243.72093	522.68951	275.33301	254.50594	428.29626	421.26505	233.38194	385.58173	429.72198	197.63544	449.17981	415.20914	185.48047	403.31238	422.96970	94.51968	118.64867	393.08902	86.40967	128.86488	313.89832	140.80350	66.90458	354.20795	-51.59513	124.98708	414.55264	-77.56018	180.30516	347.02472	-67.92947	136.94713	307.68304	540.94904	1045.77539	237.80844	368.76056	1009.49286	138.83289	539.36414	744.72729	101.23192	547.27777	701.29309	111.21048	479.00473	727.37689	102.92721	495.14194	683.01227	112.47720	593.52435	528.63428	157.89226	588.43561	533.43774	290.68246	678.61194	447.81778	141.52931	687.01471	405.38199	137.55643	619.52313	427.63181	148.71744	637.05597	388.83795	144.42645	742.91473	122.43404	195.55217	727.46484	129.65402	279.08969	821.78210	100.15810	235.90907	617.72461	41.14989	267.55682	571.82672	57.90821	233.72803	613.30255	37.40996	160.15553
480	3.99167	514.63470	1036.22400	349.51242	335.94104	998.34369	392.46341	353.66373	711.31207	449.52756	335.67575	671.66022	445.34937	296.47821	734.65649	451.06750	284.89084	692.23352	446.19196	225.41089	529.30145	403.57404	233.67525	518.32861	274.53809	237.61588	425.75412	421.41971	214.50827	383.48926	429.76593	181.50359	448.44183	414.54468	167.40173	402.78769	422.42969	66.53417	121.46231	391.75760	59.88409	131.83713	312.36380	108.78119	66.75175	354.04382	-79.55547	133.56125	411.55832	-102.19463	190.14574	342.97675	-93.54559	146.34598	303.22156	527.95404	1042.83215	238.40639	356.18668	1006.54944	138.64421	529.62256	743.75690	101.56627	537.96387	700.37811	111.52483	469.44995	725.68439	102.57334	486.76230	681.90894	111.61459	585.70209	528.12646	157.71698	579.18793	532.38489	290.45789	671.96930	448.47919	141.70399	681.09790	406.21899	137.66444	613.34534	427.53616	148.49667	631.41461	388.80685	144.19203	741.72565	123.98833	195.49028	725.93079	130.96724	278.99734	820.74762	102.46321	235.90622	617.35602	41.07198	267.50525	571.55652	57.71550	233.57033	613.01837	37.27996	160.01344
481	4.00000	501.27234	1032.72449	350.16553	322.29468	994.65302	392.62018	342.26730	706.51538	450.65829	324.78564	666.65082	446.66376	285.03561	729.04816	451.84985	273.76480	686.47797	447.48792	211.20274	526.41986	403.35760	222.70467	514.47510	274.19849	221.09932	423.06030	421.93814	196.40509	381.40652	430.07275	165.76888	447.33282	414.26901	150.16385	401.96381	422.09842	40.71683	123.82639	389.90189	35.52458	134.68826	310.38705	81.85691	67.63940	352.68732	-105.57491	140.97205	408.43546	-124.98857	197.99557	339.62360	-117.37556	154.31956	299.62695	514.67407	1039.98413	239.11191	343.50363	1003.62781	138.50897	519.44427	742.50281	101.90843	528.00336	699.12714	111.83008	459.47821	723.89435	102.23113	476.39032	679.92578	111.81051	577.09802	527.29498	157.56625	569.19391	530.74658	290.20782	664.73224	449.01300	141.80437	674.62640	406.97787	137.61411	606.20520	427.02466	148.41310	625.07074	388.71112	144.08115	740.34454	125.61472	195.21902	724.46027	132.41296	278.48593	819.53223	104.92325	235.75896	617.00262	40.98283	267.44434	571.34204	57.42934	233.43437	613.06720	36.81981	160.10225
482	4.00833	487.74432	1029.41162	350.97180	308.58304	991.13519	392.82568	329.17993	702.63171	451.16666	311.83386	662.70416	447.69943	271.88657	724.98083	453.03052	260.25198	682.41711	449.27368	196.81989	523.52344	403.14505	210.65184	511.48114	273.85202	204.24667	419.37320	423.70654	179.20616	379.02780	430.22250	150.22977	445.45602	414.14166	133.63809	401.48846	420.13235	17.45343	125.45794	387.83502	12.99489	137.05887	308.03677	57.16628	68.00609	350.71106	-128.67554	146.12506	405.47961	-145.87784	204.36984	336.92310	-139.09097	160.89963	296.46484	501.25571	1037.29187	239.98486	330.69598	1000.83435	138.48470	509.36819	741.25800	101.73720	518.41498	698.21985	111.73763	449.07132	722.04663	101.88004	466.89484	678.45703	110.96561	568.07629	526.29449	157.17624	558.84619	528.86316	289.87335	656.86639	449.52151	141.61954	667.65436	407.65533	137.40942	599.41644	426.93314	147.57307	618.27960	388.40750	143.72635	738.81689	127.39271	194.70743	722.46820	133.99321	278.21768	818.17035	107.56882	235.29868	616.68701	40.98634	267.31430	571.21759	57.14931	233.37170	612.57690	36.88704	159.74411
483	4.01667	474.19461	1026.23303	351.95923	295.02811	987.54138	393.06647	314.92969	700.64429	452.39746	296.32751	660.02850	447.91373	256.93512	722.66937	454.03757	244.95946	680.25378	449.91214	181.99144	521.29706	402.48959	197.06856	509.11716	273.46881	188.63020	416.57446	423.85809	162.68582	376.61560	430.52032	135.06111	443.59897	413.54221	117.64933	399.53659	419.34113	-3.27840	125.79348	385.70200	-7.18892	138.43126	305.86771	35.43274	67.74051	348.43777	-149.09428	149.27298	402.64664	-164.46573	208.78766	334.77283	-158.20155	165.72121	294.14410	487.75653	1034.84875	240.90445	317.56299	998.03473	138.54128	498.27155	739.74799	102.01498	506.78485	696.16772	112.16061	438.18210	720.10883	101.60005	455.50327	676.35107	111.00265	558.39191	525.05243	156.73421	547.87921	526.66235	289.29700	648.28937	449.85410	141.34235	660.18530	408.45203	136.95834	591.00244	425.93018	147.36574	611.34662	388.04657	142.89412	737.06696	129.38655	193.99751	720.49945	135.83791	277.46661	816.70337	110.55125	234.46487	616.37000	41.05987	267.07333	571.06189	56.89002	232.92821	612.26147	36.57813	159.48022
484	4.02500	460.57175	1023.32013	352.97034	281.32465	984.20093	393.44470	297.78143	698.04309	451.80151	279.58496	658.44946	447.76944	240.93921	721.54077	454.39285	228.28949	679.16296	449.82532	166.57774	519.75360	401.68253	184.00269	507.27686	273.22269	173.02165	414.05701	423.30359	146.97343	374.32047	429.69928	119.94223	441.48441	412.50687	102.04898	397.59003	418.08054	-21.08096	125.07636	383.71216	-24.63024	138.20642	303.66415	16.83517	66.38210	346.25479	-166.45619	150.57524	400.30432	-180.41539	210.96188	332.85223	-174.93880	167.99469	291.86761	474.05017	1032.57776	241.92368	304.46515	995.30975	138.67883	486.67685	737.97815	102.32884	495.41574	694.42291	112.16228	427.41608	718.58124	100.91080	444.94727	674.69598	110.12670	547.95630	523.60504	156.42038	536.39307	524.33691	288.63837	639.25262	450.43811	140.71535	651.62170	408.88376	136.44037	583.17676	425.75226	146.21440	603.43622	387.53833	142.27238	735.00159	131.52844	192.97955	718.24017	137.79706	276.39532	814.96155	113.98091	233.44910	616.02826	41.25388	266.78021	570.88385	56.62309	232.57317	611.99371	36.30349	159.16757
